# xmcd CD database file
#
# Track frame offsets:
#	150
#	3392
#	29002
#	60817
#	83167
#	120225
#	128072
#	160225
#	182575
#
# Disc length: 2967 seconds
#
# Revision: 0
# Processed by: cddbd v1.5.2PL0 Copyright (c) Steve Scherf et al.
# Submitted via: CDex 1.70beta2
#
DISCID=610b9509
DTITLE=Bill Evans - Complete Village Vanguard Recordings 1961
DYEAR=1961
DGENRE=Jazz
TTITLE0=Spoken Introduction
TTITLE1=Gloria's Step (Take 1, Interupted)
TTITLE2=Alice In Wonderland
TTITLE3=My Foolish Heart
TTITLE4=All Of You (Take 1)
TTITLE5=Announcement And Intermission
TTITLE6=My Romance (Take 1)
TTITLE7=Some Other Time
TTITLE8=Solar
EXTD=YEAR: 1961
EXTT0=
EXTT1=
EXTT2=
EXTT3=
EXTT4=
EXTT5=
EXTT6=
EXTT7=
EXTT8=
PLAYORDER=
